name rise36.2859peak64.2979fall75.1499.mot
datacolumns 19
datarows 27
range 20.76825000000000 20.81158500000000
endheader
time	ground_force1_vx	ground_force1_vy	ground_force1_vz	ground_force1_px	ground_force1_py	ground_force1_pz	ground_force2_vx	ground_force2_vy	ground_force2_vz	ground_force2_px	ground_force2_py	ground_force2_pz	ground_torque1_x	ground_torque1_y	ground_torque1_z	ground_torque2_x	ground_torque2_y	ground_torque2_z	
20.76825000000000	11.00496200000000	697.52301100000000	46.12999200000000	0.29078700000000	0.00000000000000	0.09771500000000	0.00000000000000	0.00000000000000	0.00000000000000	0.00000000000000	0.00000000000000	0.00000000000000	0.00000000000000	25.70817700000000	0.00000000000000	0.00000000000000	0.00000000000000	0.00000000000000	
20.76992000000000	10.62888900000000	698.41242999999997	46.19690800000000	0.29007100000000	0.00000000000000	0.09769200000000	0.00000000000000	0.00000000000000	0.00000000000000	0.00000000000000	0.00000000000000	0.00000000000000	0.00000000000000	25.79257100000000	0.00000000000000	0.00000000000000	0.00000000000000	0.00000000000000	
20.77158800000000	10.24079100000000	699.33877399999994	46.26477000000000	0.28936000000000	0.00000000000000	0.09766900000000	0.00000000000000	0.00000000000000	0.00000000000000	0.00000000000000	0.00000000000000	0.00000000000000	0.00000000000000	25.88075700000000	0.00000000000000	0.00000000000000	0.00000000000000	0.00000000000000	
20.77325300000000	9.84039100000000	700.30134999999996	46.33333500000000	0.28865100000000	0.00000000000000	0.09764600000000	0.00000000000000	0.00000000000000	0.00000000000000	0.00000000000000	0.00000000000000	0.00000000000000	0.00000000000000	25.97254300000000	0.00000000000000	0.00000000000000	0.00000000000000	0.00000000000000	
20.77492200000000	9.42745300000000	701.29953300000000	46.40238000000000	0.28794400000000	0.00000000000000	0.09762100000000	0.00000000000000	0.00000000000000	0.00000000000000	0.00000000000000	0.00000000000000	0.00000000000000	0.00000000000000	26.06774000000000	0.00000000000000	0.00000000000000	0.00000000000000	0.00000000000000	
20.77658800000000	9.00178000000000	702.33276100000000	46.47170000000000	0.28723800000000	0.00000000000000	0.09759600000000	0.00000000000000	0.00000000000000	0.00000000000000	0.00000000000000	0.00000000000000	0.00000000000000	0.00000000000000	26.16615900000000	0.00000000000000	0.00000000000000	0.00000000000000	0.00000000000000	
20.77825200000000	8.56321600000000	703.40053599999999	46.54111200000000	0.28653100000000	0.00000000000000	0.09757000000000	0.00000000000000	0.00000000000000	0.00000000000000	0.00000000000000	0.00000000000000	0.00000000000000	0.00000000000000	26.26761900000000	0.00000000000000	0.00000000000000	0.00000000000000	0.00000000000000	
20.77992500000000	8.11164700000000	704.50242100000003	46.61045200000000	0.28582200000000	0.00000000000000	0.09754400000000	0.00000000000000	0.00000000000000	0.00000000000000	0.00000000000000	0.00000000000000	0.00000000000000	0.00000000000000	26.37193700000000	0.00000000000000	0.00000000000000	0.00000000000000	0.00000000000000	
20.78159000000000	7.64700300000000	705.63803399999995	46.67957700000000	0.28511100000000	0.00000000000000	0.09751700000000	0.00000000000000	0.00000000000000	0.00000000000000	0.00000000000000	0.00000000000000	0.00000000000000	0.00000000000000	26.47893900000000	0.00000000000000	0.00000000000000	0.00000000000000	0.00000000000000	
20.78325700000000	7.16925700000000	706.80704900000001	46.74836700000000	0.28439600000000	0.00000000000000	0.09749000000000	0.00000000000000	0.00000000000000	0.00000000000000	0.00000000000000	0.00000000000000	0.00000000000000	0.00000000000000	26.58845200000000	0.00000000000000	0.00000000000000	0.00000000000000	0.00000000000000	
20.78491700000000	6.67842400000000	708.00918700000000	46.81672300000000	0.28367700000000	0.00000000000000	0.09746200000000	0.00000000000000	0.00000000000000	0.00000000000000	0.00000000000000	0.00000000000000	0.00000000000000	0.00000000000000	26.70030600000000	0.00000000000000	0.00000000000000	0.00000000000000	0.00000000000000	
20.78658500000000	6.17456700000000	709.24421600000005	46.88456700000000	0.28295200000000	0.00000000000000	0.09743400000000	0.00000000000000	0.00000000000000	0.00000000000000	0.00000000000000	0.00000000000000	0.00000000000000	0.00000000000000	26.81433800000000	0.00000000000000	0.00000000000000	0.00000000000000	0.00000000000000	
20.78825700000000	5.65779000000000	710.51193999999998	46.95184600000000	0.28222100000000	0.00000000000000	0.09740600000000	0.00000000000000	0.00000000000000	0.00000000000000	0.00000000000000	0.00000000000000	0.00000000000000	0.00000000000000	26.93038900000000	0.00000000000000	0.00000000000000	0.00000000000000	0.00000000000000	
20.78992100000000	5.12824200000000	711.81219999999996	47.01852700000000	0.28148200000000	0.00000000000000	0.09737700000000	0.00000000000000	0.00000000000000	0.00000000000000	0.00000000000000	0.00000000000000	0.00000000000000	0.00000000000000	27.04830300000000	0.00000000000000	0.00000000000000	0.00000000000000	0.00000000000000	
20.79158800000000	4.58611700000000	713.14486499999998	47.08460100000000	0.28073600000000	0.00000000000000	0.09734800000000	0.00000000000000	0.00000000000000	0.00000000000000	0.00000000000000	0.00000000000000	0.00000000000000	0.00000000000000	27.16793000000000	0.00000000000000	0.00000000000000	0.00000000000000	0.00000000000000	
20.79326200000000	4.03165200000000	714.50982499999998	47.15008000000000	0.27998000000000	0.00000000000000	0.09731900000000	0.00000000000000	0.00000000000000	0.00000000000000	0.00000000000000	0.00000000000000	0.00000000000000	0.00000000000000	27.28912300000000	0.00000000000000	0.00000000000000	0.00000000000000	0.00000000000000	
20.79492500000000	3.46512700000000	715.90698499999996	47.21499900000000	0.27921600000000	0.00000000000000	0.09729000000000	0.00000000000000	0.00000000000000	0.00000000000000	0.00000000000000	0.00000000000000	0.00000000000000	0.00000000000000	27.41174300000000	0.00000000000000	0.00000000000000	0.00000000000000	0.00000000000000	
20.79659000000000	2.88686600000000	717.33626100000004	47.27941500000000	0.27844200000000	0.00000000000000	0.09726100000000	0.00000000000000	0.00000000000000	0.00000000000000	0.00000000000000	0.00000000000000	0.00000000000000	0.00000000000000	27.53565300000000	0.00000000000000	0.00000000000000	0.00000000000000	0.00000000000000	
20.79825700000000	2.29723600000000	718.79756899999995	47.34340800000000	0.27765700000000	0.00000000000000	0.09723300000000	0.00000000000000	0.00000000000000	0.00000000000000	0.00000000000000	0.00000000000000	0.00000000000000	0.00000000000000	27.66072200000000	0.00000000000000	0.00000000000000	0.00000000000000	0.00000000000000	
20.79992000000000	1.69664300000000	720.29082100000005	47.40707900000000	0.27686100000000	0.00000000000000	0.09720400000000	0.00000000000000	0.00000000000000	0.00000000000000	0.00000000000000	0.00000000000000	0.00000000000000	0.00000000000000	27.78682300000000	0.00000000000000	0.00000000000000	0.00000000000000	0.00000000000000	
20.80158800000000	1.08553400000000	721.81591700000001	47.47054900000000	0.27605500000000	0.00000000000000	0.09717500000000	0.00000000000000	0.00000000000000	0.00000000000000	0.00000000000000	0.00000000000000	0.00000000000000	0.00000000000000	27.91383600000000	0.00000000000000	0.00000000000000	0.00000000000000	0.00000000000000	
20.80325500000000	0.46439700000000	723.37273600000003	47.53396100000000	0.27523600000000	0.00000000000000	0.09714700000000	0.00000000000000	0.00000000000000	0.00000000000000	0.00000000000000	0.00000000000000	0.00000000000000	0.00000000000000	28.04164200000000	0.00000000000000	0.00000000000000	0.00000000000000	0.00000000000000	
20.80491900000000	-0.16624500000000	724.96113200000002	47.59747900000000	0.27440600000000	0.00000000000000	0.09711800000000	0.00000000000000	0.00000000000000	0.00000000000000	0.00000000000000	0.00000000000000	0.00000000000000	0.00000000000000	28.17013000000000	0.00000000000000	0.00000000000000	0.00000000000000	0.00000000000000	
20.80658800000000	-0.80583100000000	726.58092599999998	47.66128500000000	0.27356400000000	0.00000000000000	0.09709000000000	0.00000000000000	0.00000000000000	0.00000000000000	0.00000000000000	0.00000000000000	0.00000000000000	0.00000000000000	28.29919100000000	0.00000000000000	0.00000000000000	0.00000000000000	0.00000000000000	
20.80825900000000	-1.45376500000000	728.23189500000001	47.72558000000000	0.27271100000000	0.00000000000000	0.09706300000000	0.00000000000000	0.00000000000000	0.00000000000000	0.00000000000000	0.00000000000000	0.00000000000000	0.00000000000000	28.42872200000000	0.00000000000000	0.00000000000000	0.00000000000000	0.00000000000000	
20.80992000000000	-2.10942000000000	729.91377100000000	47.79058500000000	0.27184500000000	0.00000000000000	0.09703500000000	0.00000000000000	0.00000000000000	0.00000000000000	0.00000000000000	0.00000000000000	0.00000000000000	0.00000000000000	28.55862400000000	0.00000000000000	0.00000000000000	0.00000000000000	0.00000000000000	
20.81158500000000	-2.77213400000000	731.62622799999997	47.85653600000000	0.27096700000000	0.00000000000000	0.09700800000000	0.00000000000000	0.00000000000000	0.00000000000000	0.00000000000000	0.00000000000000	0.00000000000000	0.00000000000000	28.68880100000000	0.00000000000000	0.00000000000000	0.00000000000000	0.00000000000000	
